<svg width="15" height="15" viewBox="0 0 15 15" fill="none" xmlns="http://www.w3.org/2000/svg">
<path d="M8.82558 7.49995L11.25 5.07307C11.4074 4.89417 11.4907 4.66205 11.4831 4.42388C11.4755 4.18571 11.3775 3.95938 11.209 3.79089C11.0405 3.62239 10.8142 3.52438 10.576 3.51678C10.3379 3.50917 10.1057 3.59254 9.92683 3.74995L7.49996 6.17432L5.06871 3.74245C4.98162 3.65537 4.87824 3.58629 4.76446 3.53916C4.65068 3.49203 4.52874 3.46777 4.40558 3.46777C4.28243 3.46777 4.16048 3.49203 4.0467 3.53916C3.93292 3.58629 3.82954 3.65537 3.74246 3.74245C3.65537 3.82953 3.5863 3.93291 3.53917 4.04669C3.49204 4.16047 3.46778 4.28242 3.46778 4.40557C3.46778 4.52873 3.49204 4.65068 3.53917 4.76445C3.5863 4.87823 3.65537 4.98162 3.74246 5.0687L6.17433 7.49995L3.74996 9.9262C3.65488 10.0112 3.57814 10.1147 3.52443 10.2304C3.47073 10.346 3.44119 10.4714 3.43762 10.5989C3.43406 10.7264 3.45653 10.8533 3.50368 10.9718C3.55084 11.0903 3.62167 11.1979 3.71184 11.2881C3.80202 11.3782 3.90965 11.4491 4.02814 11.4962C4.14663 11.5434 4.2735 11.5659 4.40098 11.5623C4.52846 11.5587 4.65387 11.5292 4.76955 11.4755C4.88522 11.4218 4.98871 11.345 5.07371 11.2499L7.49996 8.82557L9.92371 11.2499C10.0996 11.4258 10.3381 11.5246 10.5868 11.5246C10.8356 11.5246 11.0741 11.4258 11.25 11.2499C11.4258 11.0741 11.5246 10.8355 11.5246 10.5868C11.5246 10.3381 11.4258 10.0996 11.25 9.9237L8.82558 7.49995Z" fill="white"/>
</svg>
