<svg width="20" height="20" viewBox="0 0 20 20" fill="none" xmlns="http://www.w3.org/2000/svg">
<g clip-path="url(#clip0_2590_142)">
<path fill-rule="evenodd" clip-rule="evenodd" d="M10.0472 1.66672C7.12222 1.65497 4.40448 3.17259 2.88359 5.66701C1.3627 8.16144 1.2606 11.2687 2.61448 13.8572L2.78141 14.1826C2.91825 14.4387 2.94687 14.7387 2.86091 15.016C2.62269 15.6487 2.42358 16.2954 2.2647 16.9525C2.2647 17.2858 2.3601 17.4763 2.71782 17.4684C3.35142 17.3284 3.9754 17.1482 4.58593 16.9287C4.84889 16.8563 5.12848 16.873 5.38088 16.9763C5.61141 17.0874 6.08042 17.3731 6.09632 17.3731C9.15945 18.9838 12.9005 18.5394 15.4996 16.2562C18.0988 13.9731 19.0164 10.325 17.8062 7.08675C16.5959 3.84847 13.5091 1.69217 10.0472 1.66672Z" stroke="#222224" stroke-width="1.5" stroke-linecap="round" stroke-linejoin="round"/>
<path d="M6.0721 10.8333C6.53234 10.8333 6.90544 10.4602 6.90544 9.99999C6.90544 9.53975 6.53234 9.16666 6.0721 9.16666C5.61187 9.16666 5.23877 9.53975 5.23877 9.99999C5.23877 10.4602 5.61187 10.8333 6.0721 10.8333Z" fill="#222224" stroke="#222224" stroke-width="1.5" stroke-linecap="round" stroke-linejoin="round"/>
<path d="M10.0472 10.8333C10.5074 10.8333 10.8805 10.4602 10.8805 9.99999C10.8805 9.53975 10.5074 9.16666 10.0472 9.16666C9.58696 9.16666 9.21387 9.53975 9.21387 9.99999C9.21387 10.4602 9.58696 10.8333 10.0472 10.8333Z" fill="#222224" stroke="#222224" stroke-width="1.5" stroke-linecap="round" stroke-linejoin="round"/>
<path d="M14.0213 10.8333C14.4816 10.8333 14.8547 10.4602 14.8547 9.99999C14.8547 9.53975 14.4816 9.16666 14.0213 9.16666C13.5611 9.16666 13.188 9.53975 13.188 9.99999C13.188 10.4602 13.5611 10.8333 14.0213 10.8333Z" fill="#222224" stroke="#222224" stroke-width="1.5" stroke-linecap="round" stroke-linejoin="round"/>
</g>
<defs>
<clipPath id="clip0_2590_142">
<rect width="20" height="20" fill="white"/>
</clipPath>
</defs>
</svg>
