<svg width="20" height="20" viewBox="0 0 20 20" fill="none" xmlns="http://www.w3.org/2000/svg">
<path d="M3.3335 9.99999C3.3335 10.2301 3.52006 10.4167 3.75016 10.4167H11.0777L8.87223 12.6221C8.79411 12.7002 8.75021 12.8061 8.75021 12.9166C8.75016 13.1467 8.93673 13.3333 9.16683 13.3333C9.27735 13.3334 9.38335 13.2895 9.46137 13.2113L12.378 10.2946C12.378 10.2946 12.3781 10.2945 12.378 10.2946C12.5406 10.1319 12.5408 9.86805 12.378 9.70544L9.46137 6.78878C9.29994 6.63283 9.04395 6.63283 8.88246 6.78878C8.71695 6.94864 8.71237 7.21241 8.87223 7.37792L11.0777 9.58332H3.75016C3.52006 9.58332 3.3335 9.76989 3.3335 9.99999ZM14.5835 1.66666H5.41683C4.26667 1.66772 3.33456 2.59983 3.3335 3.74999V7.08332C3.3335 7.31343 3.52006 7.49999 3.75016 7.49999C3.98027 7.49999 4.16683 7.31343 4.16683 7.08332V3.74999C4.16759 3.05994 4.72678 2.50075 5.41683 2.49999H14.5835C15.2735 2.50075 15.8327 3.05994 15.8335 3.74999V16.25C15.8327 16.94 15.2735 17.4992 14.5835 17.5H5.41683C4.72678 17.4992 4.16759 16.94 4.16683 16.25V12.9167C4.16683 12.6866 3.98027 12.5 3.75016 12.5C3.52006 12.5 3.3335 12.6866 3.3335 12.9167V16.25C3.33456 17.4001 4.26667 18.3323 5.41683 18.3333H14.5835C15.7337 18.3323 16.6658 17.4001 16.6668 16.25V3.74999C16.6658 2.59983 15.7337 1.66772 14.5835 1.66666Z" fill="black"/>
</svg>
