<svg width="46" height="60" viewBox="0 0 46 60" fill="none" xmlns="http://www.w3.org/2000/svg">
<path d="M41.8375 7.80505L37.6975 3.66005C36.5392 2.49583 35.1615 1.5729 33.6441 0.94466C32.1267 0.316423 30.4998 -0.00463998 28.8575 5.06636e-05H13C9.68601 0.00402031 6.50889 1.32226 4.16555 3.6656C1.8222 6.00895 0.50397 9.18606 0.5 12.5001V47.5001C0.50397 50.814 1.8222 53.9912 4.16555 56.3345C6.50889 58.6779 9.68601 59.9961 13 60.0001H33C36.314 59.9961 39.4911 58.6779 41.8345 56.3345C44.1778 53.9912 45.496 50.814 45.5 47.5001V16.6426C45.504 15.0005 45.1824 13.374 44.5538 11.857C43.9251 10.3401 43.0019 8.96287 41.8375 7.80505ZM38.3025 11.3401C38.6571 11.6933 38.9746 12.082 39.25 12.5001H33V6.25005C33.4173 6.52835 33.8067 6.84651 34.1625 7.20005L38.3025 11.3401ZM40.5 47.5001C40.5 49.4892 39.7098 51.3968 38.3033 52.8034C36.8968 54.2099 34.9891 55.0001 33 55.0001H13C11.0109 55.0001 9.10322 54.2099 7.6967 52.8034C6.29018 51.3968 5.5 49.4892 5.5 47.5001V12.5001C5.5 10.5109 6.29018 8.60327 7.6967 7.19675C9.10322 5.79023 11.0109 5.00005 13 5.00005H28V12.5001C28 13.8261 28.5268 15.0979 29.4645 16.0356C30.4021 16.9733 31.6739 17.5001 33 17.5001H40.5V47.5001ZM33 22.5001C33.663 22.5001 34.2989 22.7634 34.7678 23.2323C35.2366 23.7011 35.5 24.337 35.5 25.0001C35.5 25.6631 35.2366 26.299 34.7678 26.7678C34.2989 27.2367 33.663 27.5001 33 27.5001H13C12.337 27.5001 11.7011 27.2367 11.2322 26.7678C10.7634 26.299 10.5 25.6631 10.5 25.0001C10.5 24.337 10.7634 23.7011 11.2322 23.2323C11.7011 22.7634 12.337 22.5001 13 22.5001H33ZM35.5 35.0001C35.5 35.6631 35.2366 36.299 34.7678 36.7678C34.2989 37.2367 33.663 37.5001 33 37.5001H13C12.337 37.5001 11.7011 37.2367 11.2322 36.7678C10.7634 36.299 10.5 35.6631 10.5 35.0001C10.5 34.337 10.7634 33.7011 11.2322 33.2323C11.7011 32.7634 12.337 32.5001 13 32.5001H33C33.663 32.5001 34.2989 32.7634 34.7678 33.2323C35.2366 33.7011 35.5 34.337 35.5 35.0001ZM35.02 43.5326C35.4086 44.0672 35.5697 44.7339 35.468 45.387C35.3664 46.0401 35.0102 46.6264 34.4775 47.0176C31.9445 48.8225 28.9445 49.8581 25.8375 50.0001C24.0222 49.9913 22.2621 49.3752 20.8375 48.2501C20.0175 47.6876 19.705 47.5001 19.0875 47.5001C17.4161 47.7587 15.839 48.4422 14.5075 49.4851C13.9794 49.8615 13.3256 50.018 12.6842 49.9215C12.0429 49.825 11.4641 49.483 11.0702 48.9677C10.6763 48.4524 10.4981 47.8043 10.5731 47.16C10.6482 46.5158 10.9707 45.926 11.4725 45.5151C13.6754 43.8049 16.3207 42.7589 19.0975 42.5001C20.7628 42.5267 22.3728 43.1023 23.6775 44.1376C24.2722 44.6725 25.0379 44.9782 25.8375 45.0001C27.8817 44.8469 29.8474 44.1485 31.53 42.9776C32.0665 42.5887 32.7355 42.4287 33.3899 42.5327C34.0443 42.6368 34.6306 42.9964 35.02 43.5326Z" fill="#222224"/>
</svg>
