<svg width="27" height="27" viewBox="0 0 27 27" fill="none" xmlns="http://www.w3.org/2000/svg">
<path d="M9.71875 0.113037C8.18125 0.113037 6.90625 1.30929 6.90625 2.80647C6.90625 3.48335 7.17625 4.09085 7.60375 4.56241H2.21875C1.44813 4.56241 0.8125 5.19804 0.8125 5.96866V9.71866C0.8125 10.3252 1.20719 10.8418 1.75 11.0368V24.3015C1.75 25.313 2.60312 26.1249 3.625 26.1249H23.3125C24.3344 26.1249 25.1875 25.313 25.1875 24.3015V11.0368C25.7294 10.8409 26.125 10.3243 26.125 9.71866V5.96866C26.125 5.19804 25.4894 4.56241 24.7188 4.56241H19.3337C19.7612 4.09085 20.0312 3.48429 20.0312 2.80647C20.0312 1.30929 18.7563 0.113037 17.2188 0.113037H16.9384C15.5359 0.113037 14.6097 0.808662 14.0819 1.74054C13.8194 2.20554 13.63 2.72116 13.4688 3.25647C13.3075 2.72116 13.12 2.20554 12.8575 1.74054C12.3297 0.808662 11.4044 0.113037 10.0009 0.113037H9.71875ZM9.71875 1.05054H10C11.1287 1.05054 11.6238 1.46772 12.0409 2.20366C12.3738 2.79148 12.5828 3.68398 12.8209 4.56241H9.71875C8.65938 4.56241 7.84375 3.77491 7.84375 2.80647C7.84375 1.83897 8.65938 1.05054 9.71875 1.05054ZM16.9384 1.05054H17.2188C18.2781 1.05054 19.0938 1.83897 19.0938 2.80647C19.0938 3.77397 18.2781 4.56241 17.2188 4.56241H14.1184C14.3566 3.68398 14.5638 2.79148 14.8966 2.20366C15.3138 1.46772 15.8106 1.05054 16.9384 1.05054ZM2.21875 5.49991H9.92219C8.94906 6.27241 8.3125 7.44616 8.3125 8.77554C8.3125 8.89986 8.36189 9.01909 8.44979 9.10699C8.5377 9.1949 8.65693 9.24429 8.78125 9.24429C8.90557 9.24429 9.0248 9.1949 9.11271 9.10699C9.20061 9.01909 9.25 8.89986 9.25 8.77554C9.25 6.96335 10.7238 5.49991 12.5594 5.49991H13V10.1874H2.21875C2.15677 10.189 2.09513 10.1779 2.03756 10.1549C1.97999 10.1319 1.9277 10.0974 1.88386 10.0536C1.84002 10.0097 1.80555 9.95743 1.78254 9.89986C1.75953 9.84229 1.74846 9.78064 1.75 9.71866V5.96866C1.75 5.70054 1.95062 5.49991 2.21875 5.49991ZM13.9375 5.49991H14.3781C16.2147 5.49991 17.6875 6.96241 17.6875 8.77554C17.6875 8.89986 17.7369 9.01909 17.8248 9.10699C17.9127 9.1949 18.0319 9.24429 18.1562 9.24429C18.2806 9.24429 18.3998 9.1949 18.4877 9.10699C18.5756 9.01909 18.625 8.89986 18.625 8.77554C18.625 7.44616 17.9866 6.27241 17.0134 5.49991H24.7188C24.9869 5.49991 25.1875 5.70054 25.1875 5.96866V9.71866C25.1875 9.98679 24.9869 10.1874 24.7188 10.1874H13.9375V5.49991ZM2.6875 11.1249H13V25.1874H3.625C3.08781 25.1874 2.6875 24.7899 2.6875 24.3015V11.1249ZM13.9375 11.1249H24.25V24.3015C24.25 24.7899 23.8497 25.1874 23.3125 25.1874H13.9375V11.1249Z" fill="#662D91"/>
</svg>
