<svg width="20" height="20" viewBox="0 0 20 20" fill="none" xmlns="http://www.w3.org/2000/svg">
<path fill-rule="evenodd" clip-rule="evenodd" d="M17.917 17.9167H2.08366C1.64163 17.9167 1.21771 17.7411 0.905148 17.4285C0.592587 17.1159 0.416992 16.692 0.416992 16.25V3.74999C0.416992 3.30797 0.592587 2.88404 0.905148 2.57148C1.21771 2.25892 1.64163 2.08333 2.08366 2.08333H17.917C18.359 2.08333 18.7829 2.25892 19.0955 2.57148C19.4081 2.88404 19.5837 3.30797 19.5837 3.74999V16.25C19.5837 16.692 19.4081 17.1159 19.0955 17.4285C18.7829 17.7411 18.359 17.9167 17.917 17.9167ZM18.7503 3.74999C18.7503 3.52898 18.6625 3.31702 18.5062 3.16074C18.35 3.00446 18.138 2.91666 17.917 2.91666H2.08366C1.86265 2.91666 1.65068 3.00446 1.4944 3.16074C1.33812 3.31702 1.25033 3.52898 1.25033 3.74999V6.24999H18.7503V3.74999ZM18.7503 7.08333H1.25033V16.25C1.25033 16.471 1.33812 16.683 1.4944 16.8393C1.65068 16.9955 1.86265 17.0833 2.08366 17.0833H17.917C18.138 17.0833 18.35 16.9955 18.5062 16.8393C18.6625 16.683 18.7503 16.471 18.7503 16.25V7.08333ZM17.0837 12.9167H16.2503C16.1398 12.9167 16.0338 12.8728 15.9557 12.7946C15.8776 12.7165 15.8337 12.6105 15.8337 12.5V11.6667C15.8337 11.5562 15.8776 11.4502 15.9557 11.372C16.0338 11.2939 16.1398 11.25 16.2503 11.25H17.0837C17.1942 11.25 17.3001 11.2939 17.3783 11.372C17.4564 11.4502 17.5003 11.5562 17.5003 11.6667V12.5C17.5003 12.6105 17.4564 12.7165 17.3783 12.7946C17.3001 12.8728 17.1942 12.9167 17.0837 12.9167ZM17.0837 9.99999H16.2503C16.1398 9.99999 16.0338 9.9561 15.9557 9.87796C15.8776 9.79982 15.8337 9.69383 15.8337 9.58333V8.74999C15.8337 8.63949 15.8776 8.53351 15.9557 8.45537C16.0338 8.37723 16.1398 8.33333 16.2503 8.33333H17.0837C17.1942 8.33333 17.3001 8.37723 17.3783 8.45537C17.4564 8.53351 17.5003 8.63949 17.5003 8.74999V9.58333C17.5003 9.69383 17.4564 9.79982 17.3783 9.87796C17.3001 9.9561 17.1942 9.99999 17.0837 9.99999ZM13.7503 12.9167H12.917C12.8065 12.9167 12.7005 12.8728 12.6224 12.7946C12.5442 12.7165 12.5003 12.6105 12.5003 12.5V11.6667C12.5003 11.5562 12.5442 11.4502 12.6224 11.372C12.7005 11.2939 12.8065 11.25 12.917 11.25H13.7503C13.8608 11.25 13.9668 11.2939 14.045 11.372C14.1231 11.4502 14.167 11.5562 14.167 11.6667V12.5C14.167 12.6105 14.1231 12.7165 14.045 12.7946C13.9668 12.8728 13.8608 12.9167 13.7503 12.9167ZM13.7503 9.99999H12.917C12.8065 9.99999 12.7005 9.9561 12.6224 9.87796C12.5442 9.79982 12.5003 9.69383 12.5003 9.58333V8.74999C12.5003 8.63949 12.5442 8.53351 12.6224 8.45537C12.7005 8.37723 12.8065 8.33333 12.917 8.33333H13.7503C13.8608 8.33333 13.9668 8.37723 14.045 8.45537C14.1231 8.53351 14.167 8.63949 14.167 8.74999V9.58333C14.167 9.69383 14.1231 9.79982 14.045 9.87796C13.9668 9.9561 13.8608 9.99999 13.7503 9.99999ZM10.417 12.9167H9.58366C9.47315 12.9167 9.36717 12.8728 9.28903 12.7946C9.21089 12.7165 9.16699 12.6105 9.16699 12.5V11.6667C9.16699 11.5562 9.21089 11.4502 9.28903 11.372C9.36717 11.2939 9.47315 11.25 9.58366 11.25H10.417C10.5275 11.25 10.6335 11.2939 10.7116 11.372C10.7898 11.4502 10.8337 11.5562 10.8337 11.6667V12.5C10.8337 12.6105 10.7898 12.7165 10.7116 12.7946C10.6335 12.8728 10.5275 12.9167 10.417 12.9167ZM10.417 9.99999H9.58366C9.47315 9.99999 9.36717 9.9561 9.28903 9.87796C9.21089 9.79982 9.16699 9.69383 9.16699 9.58333V8.74999C9.16699 8.63949 9.21089 8.53351 9.28903 8.45537C9.36717 8.37723 9.47315 8.33333 9.58366 8.33333H10.417C10.5275 8.33333 10.6335 8.37723 10.7116 8.45537C10.7898 8.53351 10.8337 8.63949 10.8337 8.74999V9.58333C10.8337 9.69383 10.7898 9.79982 10.7116 9.87796C10.6335 9.9561 10.5275 9.99999 10.417 9.99999ZM7.08366 15.8333H6.25033C6.13982 15.8333 6.03384 15.7894 5.9557 15.7113C5.87756 15.6331 5.83366 15.5272 5.83366 15.4167V14.5833C5.83366 14.4728 5.87756 14.3668 5.9557 14.2887C6.03384 14.2106 6.13982 14.1667 6.25033 14.1667H7.08366C7.19417 14.1667 7.30015 14.2106 7.37829 14.2887C7.45643 14.3668 7.50033 14.4728 7.50033 14.5833V15.4167C7.50033 15.5272 7.45643 15.6331 7.37829 15.7113C7.30015 15.7894 7.19417 15.8333 7.08366 15.8333ZM7.08366 12.9167H6.25033C6.13982 12.9167 6.03384 12.8728 5.9557 12.7946C5.87756 12.7165 5.83366 12.6105 5.83366 12.5V11.6667C5.83366 11.5562 5.87756 11.4502 5.9557 11.372C6.03384 11.2939 6.13982 11.25 6.25033 11.25H7.08366C7.19417 11.25 7.30015 11.2939 7.37829 11.372C7.45643 11.4502 7.50033 11.5562 7.50033 11.6667V12.5C7.50033 12.6105 7.45643 12.7165 7.37829 12.7946C7.30015 12.8728 7.19417 12.9167 7.08366 12.9167ZM7.08366 9.99999H6.25033C6.13982 9.99999 6.03384 9.9561 5.9557 9.87796C5.87756 9.79982 5.83366 9.69383 5.83366 9.58333V8.74999C5.83366 8.63949 5.87756 8.53351 5.9557 8.45537C6.03384 8.37723 6.13982 8.33333 6.25033 8.33333H7.08366C7.19417 8.33333 7.30015 8.37723 7.37829 8.45537C7.45643 8.53351 7.50033 8.63949 7.50033 8.74999V9.58333C7.50033 9.69383 7.45643 9.79982 7.37829 9.87796C7.30015 9.9561 7.19417 9.99999 7.08366 9.99999ZM3.75033 15.8333H2.91699C2.80649 15.8333 2.7005 15.7894 2.62236 15.7113C2.54422 15.6331 2.50033 15.5272 2.50033 15.4167V14.5833C2.50033 14.4728 2.54422 14.3668 2.62236 14.2887C2.7005 14.2106 2.80649 14.1667 2.91699 14.1667H3.75033C3.86083 14.1667 3.96681 14.2106 4.04495 14.2887C4.12309 14.3668 4.16699 14.4728 4.16699 14.5833V15.4167C4.16699 15.5272 4.12309 15.6331 4.04495 15.7113C3.96681 15.7894 3.86083 15.8333 3.75033 15.8333ZM3.75033 12.9167H2.91699C2.80649 12.9167 2.7005 12.8728 2.62236 12.7946C2.54422 12.7165 2.50033 12.6105 2.50033 12.5V11.6667C2.50033 11.5562 2.54422 11.4502 2.62236 11.372C2.7005 11.2939 2.80649 11.25 2.91699 11.25H3.75033C3.86083 11.25 3.96681 11.2939 4.04495 11.372C4.12309 11.4502 4.16699 11.5562 4.16699 11.6667V12.5C4.16699 12.6105 4.12309 12.7165 4.04495 12.7946C3.96681 12.8728 3.86083 12.9167 3.75033 12.9167ZM9.58366 14.1667H10.417C10.5275 14.1667 10.6335 14.2106 10.7116 14.2887C10.7898 14.3668 10.8337 14.4728 10.8337 14.5833V15.4167C10.8337 15.5272 10.7898 15.6331 10.7116 15.7113C10.6335 15.7894 10.5275 15.8333 10.417 15.8333H9.58366C9.47315 15.8333 9.36717 15.7894 9.28903 15.7113C9.21089 15.6331 9.16699 15.5272 9.16699 15.4167V14.5833C9.16699 14.4728 9.21089 14.3668 9.28903 14.2887C9.36717 14.2106 9.47315 14.1667 9.58366 14.1667Z" fill="#222224"/>
</svg>
