<svg width="20" height="20" viewBox="0 0 20 20" fill="none" xmlns="http://www.w3.org/2000/svg">
<g clip-path="url(#clip0_3626_247)">
<path d="M10.0001 13.3333C8.16181 13.3333 6.66681 11.8383 6.66681 10C6.66681 8.16167 8.16181 6.66667 10.0001 6.66667C11.8385 6.66667 13.3335 8.16167 13.3335 10C13.3335 11.8383 11.8385 13.3333 10.0001 13.3333ZM10.0001 8.33333C9.08098 8.33333 8.33348 9.08083 8.33348 10C8.33348 10.9192 9.08098 11.6667 10.0001 11.6667C10.9193 11.6667 11.6668 10.9192 11.6668 10C11.6668 9.08083 10.9193 8.33333 10.0001 8.33333ZM4.16681 5.83333C3.70681 5.83333 3.33348 6.20667 3.33348 6.66667C3.33348 7.12667 3.70681 7.5 4.16681 7.5C4.62681 7.5 5.00014 7.12667 5.00014 6.66667C5.00014 6.20667 4.62681 5.83333 4.16681 5.83333ZM15.0001 8.33333C15.0001 8.79333 15.3735 9.16667 15.8335 9.16667C16.2935 9.16667 16.6668 8.79333 16.6668 8.33333C16.6668 7.87333 16.2935 7.5 15.8335 7.5C15.3735 7.5 15.0001 7.87333 15.0001 8.33333ZM4.16681 10.8333C3.70681 10.8333 3.33348 11.2067 3.33348 11.6667C3.33348 12.1267 3.70681 12.5 4.16681 12.5C4.62681 12.5 5.00014 12.1267 5.00014 11.6667C5.00014 11.2067 4.62681 10.8333 4.16681 10.8333ZM15.0001 13.3333C15.0001 13.7933 15.3735 14.1667 15.8335 14.1667C16.2935 14.1667 16.6668 13.7933 16.6668 13.3333C16.6668 12.8733 16.2935 12.5 15.8335 12.5C15.3735 12.5 15.0001 12.8733 15.0001 13.3333ZM14.166 17.5C12.8043 17.5 11.5843 17.1675 10.4051 16.8458C9.28181 16.5392 8.22181 16.25 7.08348 16.25C5.77431 16.25 4.94848 16.3342 4.23431 16.5408C3.22931 16.83 2.17264 16.635 1.33431 16.0042C0.48681 15.3667 0.000976562 14.3933 0.000976562 13.3333V7.04333C0.000976562 5.32417 1.08348 3.75667 2.69514 3.1425C3.81264 2.71583 4.86931 2.5 5.83514 2.5C7.19681 2.5 8.41598 2.8325 9.59598 3.15417C10.7193 3.46083 11.7793 3.75 12.9176 3.75C14.226 3.75 15.0526 3.66583 15.7668 3.45917C16.7735 3.17 17.8301 3.365 18.6676 3.99583C19.5151 4.63333 20.001 5.60667 20.001 6.66667V12.9567C20.001 14.6758 18.9176 16.2433 17.306 16.8575C16.1885 17.2842 15.1326 17.5 14.166 17.5ZM7.08348 14.5833C8.44514 14.5833 9.66431 14.9158 10.8443 15.2375C11.9676 15.5442 13.0276 15.8333 14.166 15.8333C14.9276 15.8333 15.7843 15.6542 16.7126 15.3C17.6985 14.925 18.3343 14.005 18.3343 12.9567V6.66667C18.3343 6.13583 18.0901 5.6475 17.6651 5.32833C17.2493 5.01583 16.7268 4.9175 16.2276 5.06083C15.3518 5.31333 14.3926 5.41667 12.916 5.41667C11.5543 5.41667 10.3351 5.08417 9.15514 4.7625C8.03181 4.45583 6.97181 4.16667 5.83348 4.16667C5.07098 4.16667 4.21514 4.34583 3.28681 4.7C2.30098 5.075 1.66514 5.995 1.66514 7.04333V13.3333C1.66514 13.8642 1.90931 14.3525 2.33431 14.6717C2.75014 14.9842 3.27264 15.0825 3.77098 14.9383C4.64681 14.6858 5.60681 14.5825 7.08264 14.5825L7.08348 14.5833Z" fill="#222224"/>
</g>
<defs>
<clipPath id="clip0_3626_247">
<rect width="20" height="20" fill="white"/>
</clipPath>
</defs>
</svg>
