<svg width="15" height="15" viewBox="0 0 15 15" fill="none" xmlns="http://www.w3.org/2000/svg">
<g clip-path="url(#clip0_4401_383)">
<path d="M15 7.49988C15 7.84551 14.72 8.12488 14.375 8.12488H0.625C0.28 8.12488 0 7.84551 0 7.49988C0 7.15426 0.28 6.87488 0.625 6.87488H14.375C14.72 6.87488 15 7.15426 15 7.49988ZM5.44187 3.30801L6.875 1.87488V4.99988C6.875 5.34551 7.155 5.62488 7.5 5.62488C7.845 5.62488 8.125 5.34551 8.125 4.99988V1.87488L9.55813 3.30801C9.68 3.42988 9.84 3.49113 10 3.49113C10.16 3.49113 10.32 3.42988 10.4419 3.30801C10.6863 3.06363 10.6863 2.66863 10.4419 2.42426L8.38375 0.366133C7.89687 -0.120742 7.10313 -0.120742 6.61625 0.366133L4.55813 2.42426C4.31375 2.66863 4.31375 3.06363 4.55813 3.30801C4.8025 3.55238 5.1975 3.55238 5.44187 3.30801ZM9.55813 11.6918L8.125 13.1249V9.99988C8.125 9.65426 7.845 9.37488 7.5 9.37488C7.155 9.37488 6.875 9.65426 6.875 9.99988V13.1249L5.44187 11.6918C5.1975 11.4474 4.8025 11.4474 4.55813 11.6918C4.31375 11.9361 4.31375 12.3311 4.55813 12.5755L6.61625 14.6336C6.86 14.8774 7.18 14.9993 7.5 14.9993C7.82 14.9993 8.14 14.8774 8.38375 14.6336L10.4419 12.5755C10.6863 12.3311 10.6863 11.9361 10.4419 11.6918C10.1975 11.4474 9.8025 11.4474 9.55813 11.6918Z" fill="white"/>
</g>
<defs>
<clipPath id="clip0_4401_383">
<rect width="15" height="15" fill="white"/>
</clipPath>
</defs>
</svg>
