<svg width="20" height="20" viewBox="0 0 20 20" fill="none" xmlns="http://www.w3.org/2000/svg">
<path d="M13.8759 5.49865C13.8759 3.51026 12.264 1.89832 10.2756 1.89832C9.31808 1.89429 8.39841 2.27182 7.71992 2.94745C7.04142 3.62307 6.66002 4.54114 6.66002 5.49865M13.7615 17.9167H6.80495C4.24965 17.9167 2.28931 16.9937 2.84614 13.279L3.4945 8.24465C3.83775 6.3911 5.02005 5.68172 6.05743 5.68172H14.5395C15.5921 5.68172 16.7058 6.4445 17.1024 8.24465L17.7508 13.279C18.2237 16.5742 16.3168 17.9167 13.7615 17.9167Z" stroke="#222224" stroke-width="1.5" stroke-linecap="round" stroke-linejoin="round"/>
<path d="M12.7465 9.25165H12.709" stroke="#222224" stroke-width="1.5" stroke-linecap="round" stroke-linejoin="round"/>
<path d="M7.88843 9.25165H7.8501" stroke="#222224" stroke-width="1.5" stroke-linecap="round" stroke-linejoin="round"/>
</svg>
