<svg width="15" height="15" viewBox="0 0 15 15" fill="none" xmlns="http://www.w3.org/2000/svg">
<g clip-path="url(#clip0_4411_537)">
<path d="M4.0625 0C3.48234 0 2.92594 0.230468 2.5157 0.640704C2.10547 1.05094 1.875 1.60734 1.875 2.1875V12.8125C1.875 13.3927 2.10547 13.9491 2.5157 14.3593C2.92594 14.7695 3.48234 15 4.0625 15C4.64266 15 5.19906 14.7695 5.6093 14.3593C6.01953 13.9491 6.25 13.3927 6.25 12.8125V2.1875C6.25 1.60734 6.01953 1.05094 5.6093 0.640704C5.19906 0.230468 4.64266 0 4.0625 0ZM5 12.8125C5 13.0611 4.90123 13.2996 4.72541 13.4754C4.5496 13.6512 4.31114 13.75 4.0625 13.75C3.81386 13.75 3.5754 13.6512 3.39959 13.4754C3.22377 13.2996 3.125 13.0611 3.125 12.8125V2.1875C3.125 1.93886 3.22377 1.7004 3.39959 1.52459C3.5754 1.34877 3.81386 1.25 4.0625 1.25C4.31114 1.25 4.5496 1.34877 4.72541 1.52459C4.90123 1.7004 5 1.93886 5 2.1875V12.8125Z" fill="white"/>
<path d="M10.9375 0C10.3573 0 9.80094 0.230468 9.3907 0.640704C8.98047 1.05094 8.75 1.60734 8.75 2.1875V12.8125C8.75 13.3927 8.98047 13.9491 9.3907 14.3593C9.80094 14.7695 10.3573 15 10.9375 15C11.5177 15 12.0741 14.7695 12.4843 14.3593C12.8945 13.9491 13.125 13.3927 13.125 12.8125V2.1875C13.125 1.60734 12.8945 1.05094 12.4843 0.640704C12.0741 0.230468 11.5177 0 10.9375 0ZM11.875 12.8125C11.875 13.0611 11.7762 13.2996 11.6004 13.4754C11.4246 13.6512 11.1861 13.75 10.9375 13.75C10.6889 13.75 10.4504 13.6512 10.2746 13.4754C10.0988 13.2996 10 13.0611 10 12.8125V2.1875C10 1.93886 10.0988 1.7004 10.2746 1.52459C10.4504 1.34877 10.6889 1.25 10.9375 1.25C11.1861 1.25 11.4246 1.34877 11.6004 1.52459C11.7762 1.7004 11.875 1.93886 11.875 2.1875V12.8125Z" fill="white"/>
</g>
<defs>
<clipPath id="clip0_4411_537">
<rect width="15" height="15" fill="white"/>
</clipPath>
</defs>
</svg>
