<svg width="80" height="80" viewBox="0 0 80 80" fill="none" xmlns="http://www.w3.org/2000/svg">
<g clip-path="url(#clip0_3034_589)">
<path d="M67.0003 17.9667L55.367 6.33333C51.267 2.23333 45.8337 0 40.0337 0H21.667C13.4003 0 6.66699 6.73333 6.66699 15V65C6.66699 73.2667 13.4003 80 21.667 80H58.3337C66.6003 80 73.3337 73.2667 73.3337 65V33.3C73.3337 27.5 71.067 22.0667 67.0003 17.9667ZM64.6337 20.3333C66.467 22.1667 67.867 24.3333 68.767 26.6667H51.667C48.9003 26.6667 46.667 24.4333 46.667 21.6667V4.56667C49.0337 5.46667 51.167 6.86667 53.0003 8.7L64.6337 20.3333ZM70.0003 65C70.0003 71.4333 64.767 76.6667 58.3337 76.6667H21.667C15.2337 76.6667 10.0003 71.4333 10.0003 65V15C10.0003 8.56667 15.2337 3.33333 21.667 3.33333H40.0337C41.1337 3.33333 42.2337 3.43333 43.3337 3.63333V21.6667C43.3337 26.2667 47.067 30 51.667 30H69.7003C69.9003 31.0667 70.0003 32.1667 70.0003 33.3V65ZM23.2337 43.3333H20.0003C18.167 43.3333 16.667 44.8333 16.667 46.6667V61.6667C16.667 62.6 17.4003 63.3333 18.3337 63.3333C19.267 63.3333 20.0003 62.6 20.0003 61.6667V56.6667H23.2337C26.9337 56.6667 29.9337 53.6 29.9337 49.9333C29.9337 46.2667 26.9337 43.3333 23.2337 43.3333ZM23.2337 53.3333H20.0003V46.6667H23.2337C25.1003 46.6667 26.6003 48.1333 26.6003 49.9333C26.6003 51.7333 25.067 53.3333 23.2337 53.3333ZM40.0003 43.3333C40.0003 43.3333 38.3003 43.3333 36.667 43.3333C34.8337 43.3333 33.3337 44.8333 33.3337 46.6667V60C33.3337 61.8333 34.8337 63.3333 36.667 63.3333C38.267 63.3333 39.9003 63.3333 40.0003 63.3333C43.7003 63.3333 46.667 60.3667 46.667 56.7333V49.9667C46.667 46.3333 43.7003 43.3667 40.0003 43.3667V43.3333ZM43.3337 56.7333C43.3337 58.5 41.9003 59.9333 40.1337 60H36.667V46.6667H40.1337C41.9003 46.7333 43.3337 48.2 43.3337 49.9333V56.7V56.7333ZM63.3337 45C63.3337 45.9333 62.6003 46.6667 61.667 46.6667H53.3337V53.3333H58.3337C59.267 53.3333 60.0003 54.0667 60.0003 55C60.0003 55.9333 59.267 56.6667 58.3337 56.6667H53.3337V61.6667C53.3337 62.6 52.6003 63.3333 51.667 63.3333C50.7337 63.3333 50.0003 62.6 50.0003 61.6667V46.6667C50.0003 44.8333 51.5003 43.3333 53.3337 43.3333H61.667C62.6003 43.3333 63.3337 44.0667 63.3337 45Z" fill="black"/>
</g>
<defs>
<clipPath id="clip0_3034_589">
<rect width="80" height="80" fill="white"/>
</clipPath>
</defs>
</svg>
