<svg width="20" height="20" viewBox="0 0 20 20" fill="none" xmlns="http://www.w3.org/2000/svg">
<g clip-path="url(#clip0_3814_1121)">
<path d="M20 12.9167C20 13.15 19.8167 13.3333 19.5833 13.3333H13.75C13.0583 13.3333 12.5 13.8917 12.5 14.5833C12.5 15.275 13.0583 15.8333 13.75 15.8333H16.25C17.4 15.8333 18.3333 16.7667 18.3333 17.9167C18.3333 19.0667 17.4 20 16.25 20H0.416667C0.183333 20 0 19.8167 0 19.5833C0 19.35 0.183333 19.1667 0.416667 19.1667H16.25C16.9417 19.1667 17.5 18.6083 17.5 17.9167C17.5 17.225 16.9417 16.6667 16.25 16.6667H13.75C12.6 16.6667 11.6667 15.7333 11.6667 14.5833C11.6667 13.4333 12.6 12.5 13.75 12.5H19.5833C19.8167 12.5 20 12.6833 20 12.9167ZM0.125 16.5417C0.025 16.4417 -0.0166667 16.2917 0.0166667 16.15L1.45 10.0333C1.7 8.95832 2.51667 8.08332 3.575 7.74998L6.85833 6.71665L12.9333 0.64165C13.7833 -0.20835 15.175 -0.20835 16.025 0.64165C16.875 1.49165 16.875 2.88332 16.025 3.73332L9.95 9.80832L8.91667 13.0917C8.58333 14.15 7.70833 14.9583 6.63333 15.2167L0.516667 16.65C0.516667 16.65 0.45 16.6583 0.425 16.6583C0.316667 16.6583 0.208333 16.6167 0.133333 16.5333L0.125 16.5417ZM7.61667 7.13332L9.53333 9.04998L15.4417 3.14165C15.9667 2.61665 15.9667 1.74998 15.4417 1.22498C14.9167 0.699984 14.05 0.699984 13.525 1.22498L7.61667 7.13332ZM1.15833 14.925L4.29167 11.7917C4.45833 11.625 4.71667 11.625 4.88333 11.7917C5.05 11.9583 5.05 12.2167 4.88333 12.3833L1.75 15.5167L6.45 14.4167C7.24167 14.2333 7.88333 13.6333 8.13333 12.8583L9.1 9.79165L6.89167 7.58332L3.825 8.54998C3.05 8.79165 2.45 9.44165 2.26667 10.2333L1.16667 14.9333L1.15833 14.925Z" fill="white"/>
</g>
<defs>
<clipPath id="clip0_3814_1121">
<rect width="20" height="20" fill="white"/>
</clipPath>
</defs>
</svg>
