<svg width="50" height="50" viewBox="0 0 50 50" fill="none" xmlns="http://www.w3.org/2000/svg">
<path d="M31.3994 4.28687H18.6031C17.5425 4.28687 16.6801 5.14927 16.6801 6.20994V10.1683H5.12189C3.35516 10.1683 1.91748 11.6059 1.91748 13.3726V42.5089C1.91748 44.2756 3.35516 45.7132 5.12189 45.7132H44.8782C46.645 45.7132 48.0827 44.2756 48.0827 42.5089V13.3726C48.0827 11.6059 46.645 10.1683 44.8782 10.1683H33.3225V6.20994C33.3225 5.14927 32.46 4.28687 31.3994 4.28687ZM18.6031 6.20994H31.3994V10.1683H18.6031V6.20994ZM46.1596 42.5089C46.1596 43.2155 45.5849 43.7901 44.8782 43.7901H5.12189C4.41526 43.7901 3.84056 43.2155 3.84056 42.5089V25.359H20.7243V27.7172C20.7243 28.8657 21.6586 29.7999 22.8075 29.7999H27.1927C28.341 29.7999 29.2754 28.8657 29.2754 27.7172V25.359H46.1596L46.1596 42.5089ZM22.6474 27.7172V23.3209C22.6474 23.2326 22.7192 23.1608 22.8075 23.1608H27.1927C27.2805 23.1608 27.3523 23.2326 27.3523 23.3209V27.7172C27.3523 27.805 27.2805 27.8769 27.1927 27.8769H22.8075C22.7192 27.8769 22.6474 27.805 22.6474 27.7172ZM44.8782 12.0914C45.5849 12.0914 46.1596 12.666 46.1596 13.3726V23.4359H29.2753V23.3209C29.2753 22.172 28.341 21.2377 27.1927 21.2377H22.8075C21.6586 21.2377 20.7243 22.172 20.7243 23.3209V23.4359H3.84056V13.3726C3.84056 12.666 4.41526 12.0914 5.12189 12.0914H44.8782Z" fill="#222224"/>
</svg>
