<svg width="20" height="20" viewBox="0 0 20 20" fill="none" xmlns="http://www.w3.org/2000/svg">
<g clip-path="url(#clip0_2856_250)">
<path d="M17.5 3.33333H15V1.66667C15 1.22464 14.8244 0.800716 14.5118 0.488155C14.1993 0.175595 13.7754 0 13.3333 0L6.66667 0C6.22464 0 5.80072 0.175595 5.48816 0.488155C5.17559 0.800716 5 1.22464 5 1.66667V3.33333H2.5C1.83696 3.33333 1.20107 3.59673 0.732233 4.06557C0.263392 4.53441 0 5.17029 0 5.83333L0 20H20V5.83333C20 5.17029 19.7366 4.53441 19.2678 4.06557C18.7989 3.59673 18.163 3.33333 17.5 3.33333ZM6.66667 1.66667H13.3333V3.33333H6.66667V1.66667ZM2.5 5H17.5C17.721 5 17.933 5.0878 18.0893 5.24408C18.2455 5.40036 18.3333 5.61232 18.3333 5.83333V10H1.66667V5.83333C1.66667 5.61232 1.75446 5.40036 1.91074 5.24408C2.06702 5.0878 2.27899 5 2.5 5ZM1.66667 18.3333V11.6667H9.16667V13.3333H10.8333V11.6667H18.3333V18.3333H1.66667Z" fill="#222224"/>
</g>
<defs>
<clipPath id="clip0_2856_250">
<rect width="20" height="20" fill="white"/>
</clipPath>
</defs>
</svg>
