<svg width="15" height="15" viewBox="0 0 15 15" fill="none" xmlns="http://www.w3.org/2000/svg">
<g clip-path="url(#clip0_4394_321)">
<path d="M7.49751 0C8.01498 0 8.43448 0.419497 8.43448 0.936966V4.06019C8.43448 4.57766 8.01498 4.99716 7.49751 4.99716C6.98004 4.99716 6.56055 4.57766 6.56055 4.06019V0.936966C6.56055 0.419497 6.98001 0 7.49751 0Z" fill="#662D91"/>
<path d="M9.68371 3.08566C9.67911 3.40019 9.83769 3.69469 10.1029 3.86395C12.4579 5.30287 13.2006 8.37852 11.7616 10.7336C10.3227 13.0886 7.2471 13.8313 4.89204 12.3924C2.53697 10.9534 1.79431 7.8778 3.23326 5.52274C3.64441 4.84982 4.20899 4.28374 4.88082 3.87081C5.15052 3.70154 5.31338 3.40467 5.31121 3.08624C5.31265 2.56878 4.89432 2.14814 4.37685 2.1467C4.19912 2.1462 4.0249 2.19627 3.87455 2.29108C0.650949 4.29338 -0.339101 8.52975 1.66317 11.7533C3.66543 14.9769 7.9018 15.9669 11.1254 13.9647C14.3489 11.9624 15.339 7.72604 13.3367 4.50247C12.7794 3.60518 12.0227 2.84846 11.1254 2.29111C10.6863 2.01409 10.1057 2.1455 9.8287 2.58462C9.73407 2.73459 9.68383 2.90831 9.68371 3.08566Z" fill="#662D91"/>
</g>
<defs>
<clipPath id="clip0_4394_321">
<rect width="15" height="15" fill="white"/>
</clipPath>
</defs>
</svg>
